<?xml version="1.0" encoding="UTF-8" standalone="no"?>
<!DOCTYPE svg PUBLIC "-//W3C//DTD SVG 1.1//EN" "http://www.w3.org/Graphics/SVG/1.1/DTD/svg11.dtd">
<svg xmlns="http://www.w3.org/2000/svg" version="1.1" viewBox="0.00 0.00 1024.00 1024.00">
<g stroke-width="2.00" fill="none" stroke-linecap="butt">
<path stroke="#70552a" vector-effect="non-scaling-stroke" d="
  M 802.93 450.39
  L 802.80 479.56
  A 0.58 0.58 0.0 0 1 802.22 480.14
  L 635.95 479.95"
/>
<path stroke="#66645e" vector-effect="non-scaling-stroke" d="
  M 635.95 479.95
  Q 636.92 479.21 637.52 478.51
  Q 668.63 442.31 670.67 394.98
  C 672.42 354.40 653.19 311.48 621.84 285.66
  Q 618.88 283.22 615.96 280.75"
/>
<path stroke="#393732" vector-effect="non-scaling-stroke" d="
  M 615.96 280.75
  Q 615.63 279.87 616.52 279.88
  A 0.62 0.57 65.8 0 1 616.94 280.06
  Q 619.78 282.88 623.78 282.91
  Q 654.78 283.21 685.79 282.89"
/>
<path stroke="#3f3e3b" vector-effect="non-scaling-stroke" d="
  M 685.79 282.89
  Q 761.11 282.83 780.00 282.87
  Q 781.87 282.88 782.83 281.59
  A 1.24 1.22 64.5 0 0 783.07 280.89
  Q 783.27 266.61 783.12 248.44
  Q 783.07 242.11 781.95 239.21
  C 779.62 233.21 774.71 228.11 768.80 225.95
  Q 766.21 225.00 759.09 224.99
  Q 727.31 224.94 668.75 225.04
  Q 664.89 225.05 657.57 223.95"
/>
<path stroke="#393732" vector-effect="non-scaling-stroke" d="
  M 657.57 223.95
  Q 645.72 220.34 638.39 211.01"
/>
<path stroke="#66645e" vector-effect="non-scaling-stroke" d="
  M 638.39 211.01
  Q 637.39 209.60 636.84 208.70
  Q 620.65 181.64 610.35 163.49
  Q 606.84 157.32 601.39 155.49
  A 3.93 3.70 -31.5 0 0 600.48 155.30
  Q 595.70 154.84 593.75 154.83
  Q 547.04 154.65 475.74 154.86
  Q 469.08 154.88 466.41 156.03
  Q 461.69 158.05 459.26 162.02
  Q 444.22 186.63 428.81 211.04"
/>
<path stroke="#3f3e3b" vector-effect="non-scaling-stroke" d="
  M 428.81 211.04
  Q 426.62 213.53 423.22 216.47
  Q 416.23 222.52 407.90 224.28
  Q 404.27 225.04 390.57 225.03
  Q 272.86 224.98 268.06 224.93
  Q 256.00 224.80 253.05 225.76
  C 245.35 228.27 238.53 235.81 238.47 244.27
  Q 238.30 268.79 238.65 279.76
  Q 238.75 282.83 241.75 282.83
  C 318.53 282.90 363.47 282.80 386.66 283.06
  C 394.82 283.16 403.50 282.75 411.96 283.05"
/>
<path stroke="#393732" vector-effect="non-scaling-stroke" d="
  M 411.96 283.05
  Q 429.26 283.59 446.56 282.46
  Q 449.38 282.27 451.32 280.45
  Q 451.65 280.14 451.96 280.47
  Q 452.21 280.74 452.04 281.26"
/>
<path stroke="#66645e" vector-effect="non-scaling-stroke" d="
  M 452.04 281.26
  Q 414.67 310.29 402.48 355.11
  Q 399.35 366.64 398.30 378.15
  C 395.01 414.10 406.81 452.82 431.09 480.00"
/>
<path stroke="#70552a" vector-effect="non-scaling-stroke" d="
  M 431.09 480.00
  L 406.34 480.06"
/>
<path stroke="#917a51" vector-effect="non-scaling-stroke" d="
  M 406.34 480.06
  Q 379.07 441.11 352.75 402.52
  Q 349.77 398.16 343.75 394.65
  C 340.53 392.77 336.81 392.15 333.25 392.16
  Q 312.92 392.23 218.75 392.18
  Q 218.55 392.18 218.28 391.94"
/>
<path stroke="#70552a" vector-effect="non-scaling-stroke" d="
  M 218.28 391.94
  L 218.57 391.27
  A 1.90 1.83 58.0 0 0 218.73 390.51
  L 218.75 378.49"
/>
<path stroke="#cf9f50" vector-effect="non-scaling-stroke" d="
  M 218.28 391.94
  Q 217.91 392.05 217.50 392.05
  Q 180.50 391.94 173.00 392.23
  C 162.53 392.63 154.63 401.64 154.36 411.60
  Q 154.28 414.65 155.44 454.00
  Q 155.88 468.62 157.24 532.50
  C 157.36 538.21 157.87 544.20 157.85 548.50
  C 157.77 565.70 158.72 584.29 159.04 603.50
  Q 159.45 627.61 159.90 644.00
  C 160.55 668.00 161.39 698.60 161.62 727.09
  Q 161.70 736.81 162.34 751.25
  Q 162.53 755.49 161.98 761.35
  A 0.22 0.21 11.1 0 0 162.14 761.58
  L 162.42 761.66
  A 0.40 0.40 0.0 0 0 162.92 761.34
  Q 164.92 748.22 167.38 735.38
  Q 168.53 729.37 171.86 709.55
  Q 187.76 615.07 201.76 530.95
  Q 203.46 520.73 205.45 508.79
  Q 207.86 494.37 219.73 486.02
  Q 228.17 480.08 237.29 480.08
  Q 309.72 480.06 381.89 480.07
  Q 383.34 480.07 394.10 480.23
  Q 400.16 480.31 406.34 480.06"
/>
<path stroke="#70552a" vector-effect="non-scaling-stroke" d="
  M 822.84 450.83
  L 829.17 450.90"
/>
<path stroke="#70552a" vector-effect="non-scaling-stroke" d="
  M 829.79 450.93
  L 831.21 450.93"
/>
<path stroke="#70552a" vector-effect="non-scaling-stroke" d="
  M 831.53 450.93
  L 834.21 450.91"
/>
<path stroke="#70552a" vector-effect="non-scaling-stroke" d="
  M 185.40 379.26
  Q 200.22 380.14 215.04 379.26"
/>
<path stroke="#a4895d" vector-effect="non-scaling-stroke" d="
  M 635.95 479.95
  Q 635.22 479.96 634.18 479.97
  Q 618.49 480.18 602.79 480.16
  Q 602.42 480.16 602.28 480.00
  Q 602.13 479.82 602.10 479.48"
/>
<path stroke="#66645e" vector-effect="non-scaling-stroke" d="
  M 602.10 479.48
  C 606.63 475.64 611.51 471.67 615.35 467.56
  Q 639.04 442.15 644.93 407.99
  Q 647.31 394.19 646.32 382.85
  Q 644.20 358.38 633.23 338.07
  C 616.80 307.65 587.75 286.32 553.42 280.36
  C 536.88 277.49 518.62 278.58 502.85 283.17
  C 461.03 295.37 430.47 329.60 423.22 372.61
  Q 418.28 401.90 429.10 430.66
  Q 440.07 459.81 464.78 479.99"
/>
<path stroke="#a4895d" vector-effect="non-scaling-stroke" d="
  M 464.78 479.99
  L 431.09 480.00"
/>
<path stroke="#464442" vector-effect="non-scaling-stroke" d="
  M 657.57 223.95
  C 655.82 238.65 655.49 252.62 659.97 266.70
  Q 661.97 273.02 666.56 282.30
  A 0.80 0.79 76.7 0 0 667.27 282.74
  L 685.79 282.89"
/>
<path stroke="#6d6a65" vector-effect="non-scaling-stroke" d="
  M 615.96 280.75
  Q 590.74 262.35 560.14 256.00
  Q 552.80 254.48 541.75 254.00
  Q 502.39 252.29 469.00 270.51
  Q 460.19 275.32 452.04 281.26"
/>
<path stroke="#464442" vector-effect="non-scaling-stroke" d="
  M 411.96 283.05
  L 424.20 282.74
  A 0.88 0.87 15.8 0 0 424.91 282.35
  C 433.28 269.65 436.01 257.37 435.43 242.33
  Q 434.84 226.87 432.39 211.15"
/>
<path stroke="#6d6a65" vector-effect="non-scaling-stroke" d="
  M 638.39 211.01
  L 432.39 211.15"
/>
<path stroke="#73716e" vector-effect="non-scaling-stroke" d="
  M 432.39 211.15
  L 428.81 211.04"
/>
<path stroke="#70552a" vector-effect="non-scaling-stroke" d="
  M 602.10 479.48
  Q 600.52 480.14 599.81 480.14
  Q 535.16 480.14 470.50 480.04
  Q 467.04 480.03 464.78 479.99"
/>
<path stroke="#393732" vector-effect="non-scaling-stroke" d="
  M 362.07 205.82
  L 361.07 203.59
  A 1.24 1.09 36.1 0 1 360.96 203.10
  L 360.96 183.34
  A 2.03 1.94 -56.7 0 0 360.83 182.63
  Q 358.32 176.34 351.83 175.35
  Q 348.87 174.90 342.01 175.12
  C 327.92 175.58 312.98 175.33 291.18 175.00
  A 3.81 3.65 37.4 0 0 290.20 175.11
  C 283.97 176.69 281.86 182.17 282.06 188.49
  Q 282.31 196.47 281.81 203.36
  A 3.72 3.70 19.7 0 0 283.38 206.66
  C 289.67 211.07 296.04 210.25 305.59 210.46
  Q 312.38 210.61 317.43 210.48
  Q 332.59 210.09 351.66 210.36
  Q 356.57 210.43 361.76 206.91
  A 0.87 0.87 0.0 0 0 362.07 205.82"
/>
<path stroke="#3f3e3b" vector-effect="non-scaling-stroke" d="
  M 509.15 471.80
  C 525.35 476.82 542.03 477.13 558.19 471.69
  Q 586.12 462.29 603.48 437.41
  C 620.20 413.44 622.82 380.62 609.80 354.36
  C 599.43 333.47 581.69 317.54 559.11 310.55
  C 536.53 303.55 512.90 306.66 492.53 318.04
  C 466.94 332.33 450.55 360.88 450.79 390.11
  Q 451.04 420.44 468.77 443.99
  C 479.02 457.61 492.95 466.78 509.15 471.80"
/>
<path stroke="#3f3e3b" vector-effect="non-scaling-stroke" d="
  M 487.74 372.21
  Q 487.27 372.03 487.08 372.20
  Q 486.77 372.49 486.95 373.04
  Q 487.59 374.87 487.86 376.19
  A 2.87 2.83 -42.8 0 1 487.80 377.52
  L 484.95 387.30
  A 2.34 2.01 -40.7 0 0 484.88 387.76
  C 484.07 405.98 493.22 423.67 507.94 434.30
  Q 517.92 441.49 528.78 442.14
  C 552.94 443.57 574.56 425.79 581.24 403.35
  C 585.92 387.63 583.36 373.31 573.45 360.51
  C 567.81 353.23 559.92 348.96 551.03 345.74
  C 542.85 342.77 531.60 343.06 523.03 344.34
  A 1.08 1.05 54.8 0 1 522.33 344.21
  L 520.25 343.01
  A 0.52 0.51 40.7 0 0 519.68 343.05
  Q 519.30 343.35 519.49 343.86"
/>
<path stroke="#73716e" vector-effect="non-scaling-stroke" d="
  M 519.49 343.86
  Q 509.64 336.67 499.70 343.48
  Q 493.73 347.56 489.05 353.05
  Q 484.53 358.34 485.15 363.99
  Q 485.40 366.26 487.74 372.21"
/>
<path stroke="#66645e" vector-effect="non-scaling-stroke" d="
  M 519.49 343.86
  Q 525.40 347.64 526.66 354.77
  C 528.56 365.51 517.73 374.60 508.56 378.18
  Q 498.74 382.00 490.33 376.45
  Q 489.04 375.60 487.74 372.21"
/>
<path stroke="#cf9f50" vector-effect="non-scaling-stroke" d="
  M 544.31 868.07
  Q 629.30 867.98 736.00 868.11
  C 737.61 868.11 739.46 868.43 741.00 868.43
  Q 769.69 868.44 780.25 868.36
  C 792.50 868.27 802.80 864.34 808.59 853.41
  Q 810.72 849.39 813.15 835.17
  Q 824.92 766.31 831.74 727.51
  C 834.43 712.21 837.37 696.07 840.78 676.19
  C 845.97 645.95 850.13 623.37 855.00 594.49
  C 859.45 568.11 864.30 542.70 869.03 514.50
  Q 870.72 504.47 864.36 498.71
  C 862.09 496.65 858.71 495.46 855.78 495.46
  Q 709.85 495.47 696.25 495.24
  C 668.44 494.79 643.00 495.08 616.82 495.06
  Q 443.11 494.92 239.68 495.06
  Q 233.99 495.06 232.37 495.59
  C 227.35 497.21 223.25 501.33 220.89 506.03
  Q 219.78 508.25 218.78 514.19
  C 210.51 563.30 204.34 601.77 196.83 647.02
  Q 188.23 698.82 179.66 750.73
  Q 169.24 813.81 165.55 833.38
  Q 163.85 842.37 164.35 845.52
  C 166.81 861.13 181.81 867.41 196.27 867.37
  Q 245.30 867.23 465.89 867.36
  Q 478.48 867.37 505.11 867.81
  Q 522.04 868.10 544.31 868.07"
/>
</g>
<path fill="#32302b" d="
  M 802.93 450.39
  L 802.80 479.56
  A 0.58 0.58 0.0 0 1 802.22 480.14
  L 635.95 479.95
  Q 636.92 479.21 637.52 478.51
  Q 668.63 442.31 670.67 394.98
  C 672.42 354.40 653.19 311.48 621.84 285.66
  Q 618.88 283.22 615.96 280.75
  Q 615.63 279.87 616.52 279.88
  A 0.62 0.57 65.8 0 1 616.94 280.06
  Q 619.78 282.88 623.78 282.91
  Q 654.78 283.21 685.79 282.89
  Q 761.11 282.83 780.00 282.87
  Q 781.87 282.88 782.83 281.59
  A 1.24 1.22 64.5 0 0 783.07 280.89
  Q 783.27 266.61 783.12 248.44
  Q 783.07 242.11 781.95 239.21
  C 779.62 233.21 774.71 228.11 768.80 225.95
  Q 766.21 225.00 759.09 224.99
  Q 727.31 224.94 668.75 225.04
  Q 664.89 225.05 657.57 223.95
  Q 645.72 220.34 638.39 211.01
  Q 637.39 209.60 636.84 208.70
  Q 620.65 181.64 610.35 163.49
  Q 606.84 157.32 601.39 155.49
  A 3.93 3.70 -31.5 0 0 600.48 155.30
  Q 595.70 154.84 593.75 154.83
  Q 547.04 154.65 475.74 154.86
  Q 469.08 154.88 466.41 156.03
  Q 461.69 158.05 459.26 162.02
  Q 444.22 186.63 428.81 211.04
  Q 426.62 213.53 423.22 216.47
  Q 416.23 222.52 407.90 224.28
  Q 404.27 225.04 390.57 225.03
  Q 272.86 224.98 268.06 224.93
  Q 256.00 224.80 253.05 225.76
  C 245.35 228.27 238.53 235.81 238.47 244.27
  Q 238.30 268.79 238.65 279.76
  Q 238.75 282.83 241.75 282.83
  C 318.53 282.90 363.47 282.80 386.66 283.06
  C 394.82 283.16 403.50 282.75 411.96 283.05
  Q 429.26 283.59 446.56 282.46
  Q 449.38 282.27 451.32 280.45
  Q 451.65 280.14 451.96 280.47
  Q 452.21 280.74 452.04 281.26
  Q 414.67 310.29 402.48 355.11
  Q 399.35 366.64 398.30 378.15
  C 395.01 414.10 406.81 452.82 431.09 480.00
  L 406.34 480.06
  Q 379.07 441.11 352.75 402.52
  Q 349.77 398.16 343.75 394.65
  C 340.53 392.77 336.81 392.15 333.25 392.16
  Q 312.92 392.23 218.75 392.18
  Q 218.55 392.18 218.28 391.94
  L 218.57 391.27
  A 1.90 1.83 58.0 0 0 218.73 390.51
  L 218.75 378.49
  Q 218.44 322.11 218.75 265.75
  Q 218.79 257.58 218.77 249.36
  Q 218.75 238.33 220.09 233.78
  C 223.66 221.63 232.94 212.51 245.00 208.46
  Q 250.39 206.65 258.19 206.78
  Q 263.42 206.87 273.99 206.73
  Q 275.48 206.71 278.43 205.40
  Q 280.72 204.38 280.81 200.74
  Q 281.05 191.35 280.93 185.02
  C 280.91 183.66 282.45 179.08 283.73 177.72
  Q 287.12 174.10 290.83 174.07
  Q 310.63 173.94 348.59 174.01
  C 353.72 174.02 356.34 175.09 359.77 178.29
  Q 361.65 180.05 361.96 183.04
  Q 362.15 184.89 362.09 202.07
  C 362.08 205.74 366.82 206.89 369.75 206.87
  Q 384.75 206.75 405.50 206.79
  A 3.70 3.67 -66.6 0 0 408.04 205.77
  Q 409.86 204.03 411.79 200.78
  Q 421.24 184.83 440.55 153.02
  C 442.03 150.57 444.09 147.27 445.95 145.40
  Q 451.48 139.85 458.78 137.37
  Q 462.82 135.99 473.88 135.99
  Q 597.91 135.99 601.49 136.05
  Q 612.59 136.24 621.40 143.76
  Q 624.53 146.43 628.94 154.30
  Q 637.48 169.55 657.60 204.46
  A 2.47 2.44 3.7 0 0 658.25 205.19
  Q 660.18 206.64 661.50 206.76
  C 666.63 207.20 674.97 206.62 679.74 206.60
  Q 697.02 206.51 760.67 206.56
  Q 768.67 206.57 772.90 207.56
  C 785.50 210.52 795.95 219.64 800.43 231.66
  C 801.73 235.17 802.05 238.11 802.79 241.33
  A 6.48 6.33 -51.9 0 1 802.94 242.71
  L 802.93 450.39
  Z
  M 362.07 205.82
  L 361.07 203.59
  A 1.24 1.09 36.1 0 1 360.96 203.10
  L 360.96 183.34
  A 2.03 1.94 -56.7 0 0 360.83 182.63
  Q 358.32 176.34 351.83 175.35
  Q 348.87 174.90 342.01 175.12
  C 327.92 175.58 312.98 175.33 291.18 175.00
  A 3.81 3.65 37.4 0 0 290.20 175.11
  C 283.97 176.69 281.86 182.17 282.06 188.49
  Q 282.31 196.47 281.81 203.36
  A 3.72 3.70 19.7 0 0 283.38 206.66
  C 289.67 211.07 296.04 210.25 305.59 210.46
  Q 312.38 210.61 317.43 210.48
  Q 332.59 210.09 351.66 210.36
  Q 356.57 210.43 361.76 206.91
  A 0.87 0.87 0.0 0 0 362.07 205.82
  Z"
/>
<path fill="#9a9791" d="
  M 638.39 211.01
  L 432.39 211.15
  L 428.81 211.04
  Q 444.22 186.63 459.26 162.02
  Q 461.69 158.05 466.41 156.03
  Q 469.08 154.88 475.74 154.86
  Q 547.04 154.65 593.75 154.83
  Q 595.70 154.84 600.48 155.30
  A 3.93 3.70 -31.5 0 1 601.39 155.49
  Q 606.84 157.32 610.35 163.49
  Q 620.65 181.64 636.84 208.70
  Q 637.39 209.60 638.39 211.01
  Z"
/>
<path fill="#3f3d39" d="
  M 361.76 206.91
  Q 356.57 210.43 351.66 210.36
  Q 332.59 210.09 317.43 210.48
  Q 312.38 210.61 305.59 210.46
  C 296.04 210.25 289.67 211.07 283.38 206.66
  A 3.72 3.70 19.7 0 1 281.81 203.36
  Q 282.31 196.47 282.06 188.49
  C 281.86 182.17 283.97 176.69 290.20 175.11
  A 3.81 3.65 37.4 0 1 291.18 175.00
  C 312.98 175.33 327.92 175.58 342.01 175.12
  Q 348.87 174.90 351.83 175.35
  Q 358.32 176.34 360.83 182.63
  A 2.03 1.94 -56.7 0 1 360.96 183.34
  L 360.96 203.10
  A 1.24 1.09 36.1 0 0 361.07 203.59
  L 362.07 205.82
  A 0.87 0.87 0.0 0 1 361.76 206.91
  Z"
/>
<path fill="#3f3d39" d="
  M 657.57 223.95
  C 655.82 238.65 655.49 252.62 659.97 266.70
  Q 661.97 273.02 666.56 282.30
  A 0.80 0.79 76.7 0 0 667.27 282.74
  L 685.79 282.89
  Q 654.78 283.21 623.78 282.91
  Q 619.78 282.88 616.94 280.06
  A 0.62 0.57 65.8 0 0 616.52 279.88
  Q 615.63 279.87 615.96 280.75
  Q 590.74 262.35 560.14 256.00
  Q 552.80 254.48 541.75 254.00
  Q 502.39 252.29 469.00 270.51
  Q 460.19 275.32 452.04 281.26
  Q 452.21 280.74 451.96 280.47
  Q 451.65 280.14 451.32 280.45
  Q 449.38 282.27 446.56 282.46
  Q 429.26 283.59 411.96 283.05
  L 424.20 282.74
  A 0.88 0.87 15.8 0 0 424.91 282.35
  C 433.28 269.65 436.01 257.37 435.43 242.33
  Q 434.84 226.87 432.39 211.15
  L 638.39 211.01
  Q 645.72 220.34 657.57 223.95
  Z"
/>
<path fill="#4c4b4a" d="
  M 432.39 211.15
  Q 434.84 226.87 435.43 242.33
  C 436.01 257.37 433.28 269.65 424.91 282.35
  A 0.88 0.87 15.8 0 1 424.20 282.74
  L 411.96 283.05
  C 403.50 282.75 394.82 283.16 386.66 283.06
  C 363.47 282.80 318.53 282.90 241.75 282.83
  Q 238.75 282.83 238.65 279.76
  Q 238.30 268.79 238.47 244.27
  C 238.53 235.81 245.35 228.27 253.05 225.76
  Q 256.00 224.80 268.06 224.93
  Q 272.86 224.98 390.57 225.03
  Q 404.27 225.04 407.90 224.28
  Q 416.23 222.52 423.22 216.47
  Q 426.62 213.53 428.81 211.04
  L 432.39 211.15
  Z"
/>
<path fill="#4c4b4a" d="
  M 657.57 223.95
  Q 664.89 225.05 668.75 225.04
  Q 727.31 224.94 759.09 224.99
  Q 766.21 225.00 768.80 225.95
  C 774.71 228.11 779.62 233.21 781.95 239.21
  Q 783.07 242.11 783.12 248.44
  Q 783.27 266.61 783.07 280.89
  A 1.24 1.22 64.5 0 1 782.83 281.59
  Q 781.87 282.88 780.00 282.87
  Q 761.11 282.83 685.79 282.89
  L 667.27 282.74
  A 0.80 0.79 76.7 0 1 666.56 282.30
  Q 661.97 273.02 659.97 266.70
  C 655.49 252.62 655.82 238.65 657.57 223.95
  Z"
/>
<path fill="#9a9791" d="
  M 615.96 280.75
  Q 618.88 283.22 621.84 285.66
  C 653.19 311.48 672.42 354.40 670.67 394.98
  Q 668.63 442.31 637.52 478.51
  Q 636.92 479.21 635.95 479.95
  Q 635.22 479.96 634.18 479.97
  Q 618.49 480.18 602.79 480.16
  Q 602.42 480.16 602.28 480.00
  Q 602.13 479.82 602.10 479.48
  C 606.63 475.64 611.51 471.67 615.35 467.56
  Q 639.04 442.15 644.93 407.99
  Q 647.31 394.19 646.32 382.85
  Q 644.20 358.38 633.23 338.07
  C 616.80 307.65 587.75 286.32 553.42 280.36
  C 536.88 277.49 518.62 278.58 502.85 283.17
  C 461.03 295.37 430.47 329.60 423.22 372.61
  Q 418.28 401.90 429.10 430.66
  Q 440.07 459.81 464.78 479.99
  L 431.09 480.00
  C 406.81 452.82 395.01 414.10 398.30 378.15
  Q 399.35 366.64 402.48 355.11
  Q 414.67 310.29 452.04 281.26
  Q 460.19 275.32 469.00 270.51
  Q 502.39 252.29 541.75 254.00
  Q 552.80 254.48 560.14 256.00
  Q 590.74 262.35 615.96 280.75
  Z"
/>
<path fill="#32302b" d="
  M 602.10 479.48
  Q 600.52 480.14 599.81 480.14
  Q 535.16 480.14 470.50 480.04
  Q 467.04 480.03 464.78 479.99
  Q 440.07 459.81 429.10 430.66
  Q 418.28 401.90 423.22 372.61
  C 430.47 329.60 461.03 295.37 502.85 283.17
  C 518.62 278.58 536.88 277.49 553.42 280.36
  C 587.75 286.32 616.80 307.65 633.23 338.07
  Q 644.20 358.38 646.32 382.85
  Q 647.31 394.19 644.93 407.99
  Q 639.04 442.15 615.35 467.56
  C 611.51 471.67 606.63 475.64 602.10 479.48
  Z
  M 509.15 471.80
  C 525.35 476.82 542.03 477.13 558.19 471.69
  Q 586.12 462.29 603.48 437.41
  C 620.20 413.44 622.82 380.62 609.80 354.36
  C 599.43 333.47 581.69 317.54 559.11 310.55
  C 536.53 303.55 512.90 306.66 492.53 318.04
  C 466.94 332.33 450.55 360.88 450.79 390.11
  Q 451.04 420.44 468.77 443.99
  C 479.02 457.61 492.95 466.78 509.15 471.80
  Z"
/>
<path fill="#4c4b4a" d="
  M 559.11 310.55
  C 581.69 317.54 599.43 333.47 609.80 354.36
  C 622.82 380.62 620.20 413.44 603.48 437.41
  Q 586.12 462.29 558.19 471.69
  C 542.03 477.13 525.35 476.82 509.15 471.80
  C 492.95 466.78 479.02 457.61 468.77 443.99
  Q 451.04 420.44 450.79 390.11
  C 450.55 360.88 466.94 332.33 492.53 318.04
  C 512.90 306.66 536.53 303.55 559.11 310.55
  Z
  M 487.74 372.21
  Q 487.27 372.03 487.08 372.20
  Q 486.77 372.49 486.95 373.04
  Q 487.59 374.87 487.86 376.19
  A 2.87 2.83 -42.8 0 1 487.80 377.52
  L 484.95 387.30
  A 2.34 2.01 -40.7 0 0 484.88 387.76
  C 484.07 405.98 493.22 423.67 507.94 434.30
  Q 517.92 441.49 528.78 442.14
  C 552.94 443.57 574.56 425.79 581.24 403.35
  C 585.92 387.63 583.36 373.31 573.45 360.51
  C 567.81 353.23 559.92 348.96 551.03 345.74
  C 542.85 342.77 531.60 343.06 523.03 344.34
  A 1.08 1.05 54.8 0 1 522.33 344.21
  L 520.25 343.01
  A 0.52 0.51 40.7 0 0 519.68 343.05
  Q 519.30 343.35 519.49 343.86
  Q 509.64 336.67 499.70 343.48
  Q 493.73 347.56 489.05 353.05
  Q 484.53 358.34 485.15 363.99
  Q 485.40 366.26 487.74 372.21
  Z"
/>
<path fill="#9a9791" d="
  M 519.49 343.86
  Q 525.40 347.64 526.66 354.77
  C 528.56 365.51 517.73 374.60 508.56 378.18
  Q 498.74 382.00 490.33 376.45
  Q 489.04 375.60 487.74 372.21
  Q 485.40 366.26 485.15 363.99
  Q 484.53 358.34 489.05 353.05
  Q 493.73 347.56 499.70 343.48
  Q 509.64 336.67 519.49 343.86
  Z"
/>
<path fill="#32302b" d="
  M 487.74 372.21
  Q 489.04 375.60 490.33 376.45
  Q 498.74 382.00 508.56 378.18
  C 517.73 374.60 528.56 365.51 526.66 354.77
  Q 525.40 347.64 519.49 343.86
  Q 519.30 343.35 519.68 343.05
  A 0.52 0.51 40.7 0 1 520.25 343.01
  L 522.33 344.21
  A 1.08 1.05 54.8 0 0 523.03 344.34
  C 531.60 343.06 542.85 342.77 551.03 345.74
  C 559.92 348.96 567.81 353.23 573.45 360.51
  C 583.36 373.31 585.92 387.63 581.24 403.35
  C 574.56 425.79 552.94 443.57 528.78 442.14
  Q 517.92 441.49 507.94 434.30
  C 493.22 423.67 484.07 405.98 484.88 387.76
  A 2.34 2.01 -40.7 0 1 484.95 387.30
  L 487.80 377.52
  A 2.87 2.83 -42.8 0 0 487.86 376.19
  Q 487.59 374.87 486.95 373.04
  Q 486.77 372.49 487.08 372.20
  Q 487.27 372.03 487.74 372.21
  Z"
/>
<path fill="#ad7a29" d="
  M 218.75 378.49
  L 218.73 390.51
  A 1.90 1.83 58.0 0 1 218.57 391.27
  L 218.28 391.94
  Q 217.91 392.05 217.50 392.05
  Q 180.50 391.94 173.00 392.23
  C 162.53 392.63 154.63 401.64 154.36 411.60
  Q 154.28 414.65 155.44 454.00
  Q 155.88 468.62 157.24 532.50
  C 157.36 538.21 157.87 544.20 157.85 548.50
  C 157.77 565.70 158.72 584.29 159.04 603.50
  Q 159.45 627.61 159.90 644.00
  C 160.55 668.00 161.39 698.60 161.62 727.09
  Q 161.70 736.81 162.34 751.25
  Q 162.53 755.49 161.98 761.35
  A 0.22 0.21 11.1 0 0 162.14 761.58
  L 162.42 761.66
  A 0.40 0.40 0.0 0 0 162.92 761.34
  Q 164.92 748.22 167.38 735.38
  Q 168.53 729.37 171.86 709.55
  Q 187.76 615.07 201.76 530.95
  Q 203.46 520.73 205.45 508.79
  Q 207.86 494.37 219.73 486.02
  Q 228.17 480.08 237.29 480.08
  Q 309.72 480.06 381.89 480.07
  Q 383.34 480.07 394.10 480.23
  Q 400.16 480.31 406.34 480.06
  L 431.09 480.00
  L 464.78 479.99
  Q 467.04 480.03 470.50 480.04
  Q 535.16 480.14 599.81 480.14
  Q 600.52 480.14 602.10 479.48
  Q 602.13 479.82 602.28 480.00
  Q 602.42 480.16 602.79 480.16
  Q 618.49 480.18 634.18 479.97
  Q 635.22 479.96 635.95 479.95
  L 802.22 480.14
  A 0.58 0.58 0.0 0 0 802.80 479.56
  L 802.93 450.39
  Q 812.61 451.35 822.84 450.83
  L 829.17 450.90
  L 829.79 450.93
  L 831.21 450.93
  Q 831.37 450.93 831.53 450.93
  L 834.21 450.91
  C 843.06 450.45 852.45 454.66 855.29 463.52
  C 856.37 466.87 855.95 472.29 855.93 474.75
  C 855.90 478.40 856.78 480.62 860.56 481.15
  Q 873.13 482.90 879.75 491.28
  C 884.60 497.42 887.74 507.10 886.32 515.28
  Q 877.03 568.83 865.48 633.02
  C 851.60 710.18 840.73 773.31 827.05 850.06
  Q 826.38 853.78 823.08 860.64
  C 817.58 872.05 807.73 879.95 795.54 883.52
  Q 790.20 885.08 778.28 885.11
  Q 766.49 885.15 757.77 885.13
  Q 526.01 884.78 277.00 885.01
  C 274.72 885.01 272.35 884.56 270.25 884.56
  Q 196.70 884.55 192.97 884.60
  C 189.25 884.66 183.66 883.85 181.03 882.99
  Q 156.69 874.97 150.67 850.31
  A 8.07 7.59 -54.6 0 1 150.46 848.78
  Q 149.89 828.99 149.82 815.83
  Q 149.79 810.51 149.14 805.70
  C 148.61 801.72 149.22 796.86 148.83 792.10
  Q 148.43 787.24 148.62 778.75
  C 148.65 777.33 148.13 775.37 148.12 773.73
  Q 147.99 751.49 147.76 746.81
  C 147.71 745.64 147.33 744.15 147.32 742.99
  Q 146.96 717.24 146.70 713.98
  C 146.10 706.52 146.04 699.35 146.07 694.05
  Q 146.10 685.84 145.57 676.96
  Q 144.87 665.20 145.05 652.35
  C 145.11 648.64 144.25 645.98 144.36 642.60
  C 144.58 635.56 144.10 628.87 144.01 621.47
  C 143.89 611.15 144.12 603.35 143.37 596.00
  Q 143.29 595.16 142.70 569.01
  Q 142.67 567.46 142.61 564.87
  Q 142.30 551.31 142.13 544.36
  C 141.80 530.18 140.87 514.38 140.91 500.30
  Q 140.93 491.98 140.18 479.77
  Q 139.68 471.57 139.87 459.20
  A 6.60 6.26 -51.6 0 0 139.75 457.86
  Q 139.23 455.10 139.22 454.76
  Q 139.07 449.23 138.88 427.66
  A 3.54 3.25 42.5 0 0 138.83 427.08
  C 137.89 422.27 138.34 416.98 138.15 412.12
  Q 137.89 405.51 139.09 401.51
  C 142.04 391.60 149.73 383.86 159.54 380.42
  Q 163.34 379.09 170.38 379.02
  Q 177.93 378.95 185.40 379.26
  Q 200.22 380.14 215.04 379.26
  L 218.75 378.49
  Z
  M 544.31 868.07
  Q 629.30 867.98 736.00 868.11
  C 737.61 868.11 739.46 868.43 741.00 868.43
  Q 769.69 868.44 780.25 868.36
  C 792.50 868.27 802.80 864.34 808.59 853.41
  Q 810.72 849.39 813.15 835.17
  Q 824.92 766.31 831.74 727.51
  C 834.43 712.21 837.37 696.07 840.78 676.19
  C 845.97 645.95 850.13 623.37 855.00 594.49
  C 859.45 568.11 864.30 542.70 869.03 514.50
  Q 870.72 504.47 864.36 498.71
  C 862.09 496.65 858.71 495.46 855.78 495.46
  Q 709.85 495.47 696.25 495.24
  C 668.44 494.79 643.00 495.08 616.82 495.06
  Q 443.11 494.92 239.68 495.06
  Q 233.99 495.06 232.37 495.59
  C 227.35 497.21 223.25 501.33 220.89 506.03
  Q 219.78 508.25 218.78 514.19
  C 210.51 563.30 204.34 601.77 196.83 647.02
  Q 188.23 698.82 179.66 750.73
  Q 169.24 813.81 165.55 833.38
  Q 163.85 842.37 164.35 845.52
  C 166.81 861.13 181.81 867.41 196.27 867.37
  Q 245.30 867.23 465.89 867.36
  Q 478.48 867.37 505.11 867.81
  Q 522.04 868.10 544.31 868.07
  Z"
/>
<path fill="#32302b" d="
  M 215.04 379.26
  Q 200.22 380.14 185.40 379.26
  L 215.04 379.26
  Z"
/>
<path fill="#f0c477" d="
  M 218.28 391.94
  Q 218.55 392.18 218.75 392.18
  Q 312.92 392.23 333.25 392.16
  C 336.81 392.15 340.53 392.77 343.75 394.65
  Q 349.77 398.16 352.75 402.52
  Q 379.07 441.11 406.34 480.06
  Q 400.16 480.31 394.10 480.23
  Q 383.34 480.07 381.89 480.07
  Q 309.72 480.06 237.29 480.08
  Q 228.17 480.08 219.73 486.02
  Q 207.86 494.37 205.45 508.79
  Q 203.46 520.73 201.76 530.95
  Q 187.76 615.07 171.86 709.55
  Q 168.53 729.37 167.38 735.38
  Q 164.92 748.22 162.92 761.34
  A 0.40 0.40 0.0 0 1 162.42 761.66
  L 162.14 761.58
  A 0.22 0.21 11.1 0 1 161.98 761.35
  Q 162.53 755.49 162.34 751.25
  Q 161.70 736.81 161.62 727.09
  C 161.39 698.60 160.55 668.00 159.90 644.00
  Q 159.45 627.61 159.04 603.50
  C 158.72 584.29 157.77 565.70 157.85 548.50
  C 157.87 544.20 157.36 538.21 157.24 532.50
  Q 155.88 468.62 155.44 454.00
  Q 154.28 414.65 154.36 411.60
  C 154.63 401.64 162.53 392.63 173.00 392.23
  Q 180.50 391.94 217.50 392.05
  Q 217.91 392.05 218.28 391.94
  Z"
/>
<path fill="#32302b" d="
  M 829.17 450.90
  L 822.84 450.83
  L 829.17 450.90
  Z"
/>
<path fill="#32302b" d="
  M 831.21 450.93
  L 829.79 450.93
  Q 830.50 450.81 831.21 450.93
  Z"
/>
<path fill="#32302b" d="
  M 834.21 450.91
  L 831.53 450.93
  L 834.21 450.91
  Z"
/>
<path fill="#f0c477" d="
  M 544.31 868.07
  Q 522.04 868.10 505.11 867.81
  Q 478.48 867.37 465.89 867.36
  Q 245.30 867.23 196.27 867.37
  C 181.81 867.41 166.81 861.13 164.35 845.52
  Q 163.85 842.37 165.55 833.38
  Q 169.24 813.81 179.66 750.73
  Q 188.23 698.82 196.83 647.02
  C 204.34 601.77 210.51 563.30 218.78 514.19
  Q 219.78 508.25 220.89 506.03
  C 223.25 501.33 227.35 497.21 232.37 495.59
  Q 233.99 495.06 239.68 495.06
  Q 443.11 494.92 616.82 495.06
  C 643.00 495.08 668.44 494.79 696.25 495.24
  Q 709.85 495.47 855.78 495.46
  C 858.71 495.46 862.09 496.65 864.36 498.71
  Q 870.72 504.47 869.03 514.50
  C 864.30 542.70 859.45 568.11 855.00 594.49
  C 850.13 623.37 845.97 645.95 840.78 676.19
  C 837.37 696.07 834.43 712.21 831.74 727.51
  Q 824.92 766.31 813.15 835.17
  Q 810.72 849.39 808.59 853.41
  C 802.80 864.34 792.50 868.27 780.25 868.36
  Q 769.69 868.44 741.00 868.43
  C 739.46 868.43 737.61 868.11 736.00 868.11
  Q 629.30 867.98 544.31 868.07
  Z"
/>
</svg>
